<?xml version="1.0" standalone="no"?>
<!DOCTYPE svg PUBLIC "-//W3C//DTD SVG 20010904//EN"
 "http://www.w3.org/TR/2001/REC-SVG-20010904/DTD/svg10.dtd">
<svg version="1.0" xmlns="http://www.w3.org/2000/svg"
 width="512.000000pt" height="512.000000pt" viewBox="0 0 512.000000 512.000000"
 preserveAspectRatio="xMidYMid meet">
<metadata>
Created by potrace 1.11, written by Peter Selinger 2001-2013
</metadata>
<g transform="translate(0.000000,512.000000) scale(0.100000,-0.100000)"
fill="#000000" stroke="none">
<path d="M2399 3596 c-2 -2 -29 -6 -59 -10 -320 -33 -596 -250 -670 -526 -31
-117 -37 -160 -39 -316 l-2 -149 277 3 c153 2 279 4 281 5 1 2 3 58 4 126 2
196 34 290 120 365 54 45 124 69 213 70 89 1 148 -16 208 -59 91 -67 125 -158
134 -365 3 -74 6 -136 8 -137 1 -1 127 -3 280 -5 l278 -3 -5 155 c-6 171 -23
264 -65 373 -78 201 -248 354 -472 425 -36 11 -81 23 -100 26 -19 3 -46 9 -60
12 -29 7 -324 16 -331 10z"/>
<path d="M1220 3450 c-19 -11 -78 -50 -130 -86 -52 -36 -293 -200 -536 -365
-333 -226 -445 -307 -459 -332 -14 -26 -16 -51 -14 -120 4 -84 5 -88 39 -121
19 -18 132 -98 250 -177 118 -79 220 -148 225 -152 6 -5 87 -60 180 -124 94
-63 231 -157 306 -208 163 -110 189 -121 221 -95 22 18 23 23 24 209 1 163 -2
195 -16 219 -14 23 -189 152 -206 152 -3 0 -11 6 -19 13 -7 6 -113 77 -235
156 l-221 144 93 61 c51 33 165 107 253 165 88 58 165 108 170 111 19 10 70
44 118 79 34 26 50 45 56 71 10 42 8 356 -2 386 -4 12 -18 25 -30 28 -29 8
-27 8 -67 -14z"/>
<path d="M3811 3454 c-20 -15 -21 -23 -21 -218 l0 -202 29 -28 c16 -15 73 -56
127 -91 55 -35 104 -67 109 -72 6 -5 55 -37 110 -73 184 -118 300 -193 309
-201 4 -4 -79 -65 -185 -135 -107 -70 -250 -164 -319 -209 -69 -45 -137 -95
-152 -110 l-28 -28 0 -196 c0 -108 4 -201 8 -208 4 -6 20 -16 35 -22 25 -10
41 -2 210 112 345 233 810 549 910 619 65 44 83 86 81 181 -1 58 -6 81 -22
104 -19 26 -87 74 -497 351 -66 45 -124 85 -130 90 -8 6 -169 116 -461 313
-50 35 -86 42 -113 23z"/>
<path d="M1633 2321 c9 -198 26 -271 95 -406 86 -168 241 -287 457 -350 118
-34 170 -40 350 -40 173 1 227 7 345 42 269 77 448 255 514 509 21 80 25 118
32 256 l6 117 -281 -2 -281 -2 -1 -35 c-7 -214 -28 -287 -104 -365 -121 -122
-346 -123 -473 -2 -50 48 -78 114 -97 232 -1 6 -3 46 -3 90 l-2 80 -281 1
-282 2 6 -127z"/>
</g>
</svg>
