<svg viewBox="0 0 512 512" width="32" height="32" fill="none"
     xmlns="http://www.w3.org/2000/svg">
    <path d="M126.443 346.426C125.285 346.426 123.753 345.847 121.808 344.688L16.4011 273.051C13.5042 271.147 11.3936 269.202 10.0279 267.257C8.66217 265.353 8 263.036 8 260.304V251.075C8 248.385 8.62077 246.151 9.86232 244.412C11.1039 242.674 13.2973 240.771 16.3597 238.618L121.808 166.981C123.712 165.823 125.285 165.243 126.443 165.243C128.182 165.243 129.63 165.781 130.789 166.816C131.948 167.892 132.527 169.382 132.527 171.285V203.979C132.527 206.876 131.823 209.152 130.375 210.767C128.927 212.422 126.94 213.995 124.457 215.526L62.9177 255.669L124.457 296.102C127.147 298.047 129.175 299.703 130.541 301.151C131.906 302.599 132.568 304.669 132.568 307.359V340.301C132.568 342.039 131.989 343.488 130.83 344.646C129.63 345.847 128.182 346.426 126.443 346.426Z"
          fill="black"/>
    <path d="M211.282 251.986C212.193 251.986 213.062 251.986 213.972 251.986C215.628 251.986 217.242 251.986 218.897 251.986C218.939 243.585 219.021 237.046 219.187 232.328C219.559 219.83 222.746 210.518 228.705 204.435C234.665 198.351 242.776 195.33 252.957 195.33C262.972 195.33 270.959 198.351 276.919 204.435C282.878 210.518 286.065 219.788 286.437 232.328C286.727 240.646 286.934 247.227 286.975 251.986C305.64 252.027 324.346 252.11 343.01 252.317C342.928 247.02 342.762 240.067 342.472 231.459C341.686 206.049 333.285 186.432 317.186 172.651C301.088 158.87 279.692 152 252.916 152C225.933 152 204.413 158.87 188.355 172.651C172.256 186.432 163.855 206.007 163.069 231.459C162.904 236.301 162.821 243.254 162.779 252.317C179.002 252.11 195.142 252.027 211.282 251.986Z"
          fill="black"/>
    <path d="M286.893 267.505C286.81 271.023 286.686 275.078 286.52 279.672C286.148 292.212 282.961 301.482 277.002 307.565C271.042 313.649 263.055 316.67 253.04 316.67C242.818 316.67 234.748 313.649 228.788 307.565C222.829 301.482 219.642 292.212 219.27 279.672C219.146 276.444 219.063 272.388 219.022 267.546C198.412 267.505 178.878 267.381 162.945 267.215C162.986 273.175 163.069 277.893 163.193 281.41C164.145 307.234 172.546 326.768 188.314 340.053C204.123 353.337 225.685 360 253.04 360C280.395 360 301.915 353.337 317.6 340.053C333.285 326.768 341.645 307.234 342.597 281.41C342.804 276.03 342.928 271.271 343.011 267.132C327.988 267.298 308.289 267.464 286.893 267.505Z"
          fill="#DD6900"/>
    <path d="M384.933 346.426C383.195 346.426 381.747 345.847 380.588 344.688C379.429 343.529 378.85 342.081 378.85 340.342V307.4C378.85 304.71 379.512 302.641 380.878 301.192C382.202 299.744 384.23 298.047 386.961 296.143L448.501 255.71L386.961 215.567C384.437 214.036 382.492 212.422 381.043 210.808C379.595 209.194 378.891 206.918 378.891 204.021V171.368C378.891 169.464 379.471 167.933 380.629 166.899C381.788 165.823 383.237 165.326 384.975 165.326C386.134 165.326 387.665 165.905 389.61 167.064L495.059 238.701C498.121 240.812 500.314 242.757 501.556 244.495C502.797 246.233 503.418 248.427 503.418 251.158V260.387C503.418 263.077 502.756 265.394 501.39 267.34C500.025 269.285 497.914 271.188 495.017 273.133L389.527 344.688C387.623 345.847 386.092 346.426 384.933 346.426Z"
          fill="black"/>
</svg>