<?xml version="1.0" encoding="utf-8"?>
<svg version="1.1" xmlns="http://www.w3.org/2000/svg" height="54" width="74" viewBox="560 500 1880 600">
<style type="text/css">
	.st0{fill:#DD6900;}
	.st1{fill:#FFFFFF;}
</style>
<g>
		<path class="st1" d="M852.5,881.2c-2.8,0-6.5-1.4-11.2-4.2L586.6,703.9c-7-4.6-12.1-9.3-15.4-14c-3.3-4.6-4.9-10.2-4.9-16.8v-22.3
			c0-6.5,1.5-11.9,4.5-16.1c3-4.2,8.3-8.8,15.7-14l254.8-173.1c4.6-2.8,8.4-4.2,11.2-4.2c4.2,0,7.7,1.3,10.5,3.8
			c2.8,2.6,4.2,6.2,4.2,10.8V537c0,7-1.7,12.5-5.2,16.4c-3.5,4-8.3,7.8-14.3,11.5l-148.7,97l148.7,97.7c6.5,4.7,11.4,8.7,14.7,12.2
			c3.3,3.5,4.9,8.5,4.9,15v79.6c0,4.2-1.4,7.7-4.2,10.5C860.2,879.8,856.7,881.2,852.5,881.2z"/>
		<path class="st1" d="M1057.5,653c2.2,0,4.3,0,6.5,0c4,0,7.9,0,11.9,0c0.1-20.3,0.3-36.1,0.7-47.5c0.9-30.2,8.6-52.7,23-67.4
			c14.4-14.7,34-22,58.6-22c24.2,0,43.5,7.3,57.9,22c14.4,14.7,22.1,37.1,23,67.4c0.7,20.1,1.2,36,1.3,47.5
			c45.1,0.1,90.3,0.3,135.4,0.8c-0.2-12.8-0.6-29.6-1.3-50.4c-1.9-61.4-22.2-108.8-61.1-142.1c-38.9-33.3-90.6-49.9-155.3-49.9
			c-65.2,0-117.2,16.6-156,49.9c-38.9,33.3-59.2,80.6-61.1,142.1c-0.4,11.7-0.6,28.5-0.7,50.4C979.5,653.3,1018.5,653.1,1057.5,653z
			"/>
		<path class="st0" d="M1240.2,690.5c-0.2,8.5-0.5,18.3-0.9,29.4c-0.9,30.3-8.6,52.7-23,67.4c-14.4,14.7-33.7,22-57.9,22
			c-24.7,0-44.2-7.3-58.6-22c-14.4-14.7-22.1-37.1-23-67.4c-0.3-7.8-0.5-17.6-0.6-29.3c-49.8-0.1-97-0.4-135.5-0.8
			c0.1,14.4,0.3,25.8,0.6,34.3c2.3,62.4,22.6,109.6,60.7,141.7c38.2,32.1,90.3,48.2,156.4,48.2c66.1,0,118.1-16.1,156-48.2
			c37.9-32.1,58.1-79.3,60.4-141.7c0.5-13,0.8-24.5,1-34.5C1339.5,690,1291.9,690.4,1240.2,690.5z"/>
		<path class="st1" d="M1443.1,791.1c38.2-45.6,72.6-86.8,103.3-123.6c18.2-22.3,32.8-40,44-53.1c11.2-13,21.5-25.4,31.1-37
			c9.5-11.6,17.8-21.5,24.8-29.7c7-8.1,11.2-13.1,12.6-15c1.4-1.9,1.7-3.5,1-4.9c-0.7-1.4-2-2.1-3.8-2.1h-199
			c-5.1,0-9.3-1.6-12.6-4.9c-3.3-3.3-4.9-7.4-4.9-12.6v-29.3c0-7.9,1.6-15.5,4.9-22.7c3.3-7.2,7.6-13.6,12.9-19.2
			c5.3-5.6,11.7-10.1,19.2-13.6c7.4-3.5,15.4-5.2,23.7-5.2H1811c5.6,0,9.9,1.7,12.9,5.2c3,3.5,4.5,7.8,4.5,12.9v69.8
			c0,8.8-2.8,16.8-8.4,23.7c-37.7,46.5-71.4,88.7-101.2,126.4c-18.2,22.3-32.6,40.1-43.3,53.4c-10.7,13.3-20.6,25.6-29.7,37
			c-9.1,11.4-16.9,21.1-23.4,29c-6.5,7.9-10.2,12.6-11.2,14c-0.9,1.4-0.9,2.8,0,4.2c0.9,1.4,1.9,2.1,2.8,2.1h205.2
			c5.1,0,9.3,1.6,12.6,4.9c3.3,3.3,4.9,7.4,4.9,12.6v74c0,5.1-1.6,9.3-4.9,12.6c-3.3,3.3-7.4,4.9-12.6,4.9h-368.6
			c-5.1,0-9.4-1.7-12.9-5.2c-3.5-3.5-5.2-7.8-5.2-12.9v-71.2c0-6.5,0.9-10.9,2.8-13.3c0.9-1.9,2-3.6,3.1-5.2
			C1439.7,795.4,1441.2,793.5,1443.1,791.1z"/>
		<path class="st1" d="M1909.4,889.6V481.2c0-17.7,6-32.2,18.2-43.6c12.1-11.4,26.3-17.1,42.6-17.1h55.8c5.6,0,9.8,1.6,12.6,4.9
			c3.2,3.3,4.9,7.5,4.9,12.6v451.7c0,5.1-1.6,9.3-4.9,12.6c-2.8,3.3-7,4.9-12.6,4.9h-99.1c-5.1,0-9.3-1.6-12.6-4.9
			C1911.1,898.9,1909.4,894.7,1909.4,889.6z"/>
		<path class="st1" d="M2147.5,881.2c-4.2,0-7.7-1.4-10.5-4.2c-2.8-2.8-4.2-6.3-4.2-10.5v-79.6c0-6.5,1.6-11.5,4.9-15c3.2-3.5,8.1-7.6,14.7-12.2
			l148.7-97.7l-148.7-97c-6.1-3.7-10.8-7.6-14.3-11.5c-3.5-3.9-5.2-9.4-5.2-16.4v-78.9c0-4.6,1.4-8.3,4.2-10.8
			c2.8-2.6,6.3-3.8,10.5-3.8c2.8,0,6.5,1.4,11.2,4.2l254.8,173.1c7.4,5.1,12.7,9.8,15.7,14c3,4.2,4.5,9.5,4.5,16.1v22.3
			c0,6.5-1.6,12.1-4.9,16.8c-3.3,4.7-8.4,9.3-15.4,14L2158.6,877C2154,879.8,2150.3,881.2,2147.5,881.2z"/>
	</g>
	<g>
		<path class="st0" d="M1085.3,1004.8v17.1h-13.6c-7.2,20.8-14.3,41.5-21.2,62.2c-7,20.7-14,41.4-21,62.2h-24.3
			c-3.9-12.4-7.7-24.6-11.6-36.8c-3.9-12.2-7.7-24.4-11.6-36.8l-25.1,73.6h-24.3l-39.1-124.4h-14.2v-17.1h32.3l33.1,111.5
			c4.3-13.3,8.6-26.5,13-39.7c4.4-13.2,8.8-26.4,13.2-39.7l-9.8-32.1h23.1l33.1,111.5l36.5-111.5H1085.3z"/>
		<path class="st0" d="M1136,1148.6c-5.9,0-11.8-0.8-17.8-2.3c-6.1-1.5-11.6-4.3-16.6-8.2c-5-3.9-9.1-9.2-12.3-15.8
			c-3.2-6.6-4.8-14.9-4.8-25v-16c0-10.1,1.5-18.2,4.6-24.3c3.1-6.1,7-10.8,11.9-14.2c4.9-3.3,10.2-5.5,16.2-6.5
			c5.9-1,11.7-1.5,17.2-1.5c5.4,0,10.9,0.6,16.3,1.8c5.4,1.2,10.2,3.4,14.5,6.7c4.3,3.3,7.7,7.8,10.3,13.6
			c2.6,5.8,3.9,13.3,3.9,22.6c0,3.2-0.1,6.4-0.3,9.8c-0.2,3.3-0.6,6.1-1.1,8.4h-72.2c0,6.3,1,11.5,2.9,15.8
			c1.9,4.3,4.4,7.6,7.3,10.2c2.9,2.5,6.1,4.3,9.5,5.4c3.4,1.1,6.5,1.6,9.5,1.6c8.1,0,14.8-0.3,20-1c5.3-0.7,10.1-1.5,14.5-2.4
			l5.8,14.6c-4.9,2.3-10.8,4-17.6,5.1C1150.6,1148,1143.4,1148.6,1136,1148.6z M1133.2,1051.2c-3.3,0-6.6,0.3-9.8,0.9
			s-6.1,2-8.6,4.2c-2.5,2.2-4.6,5.4-6.2,9.6c-1.6,4.2-2.5,9.8-2.6,16.9h50.7c0.7-0.9,1.1-1.9,1.2-3c0.1-1.1,0.2-2.5,0.2-4.4
			c-0.1-4.4-0.9-8.1-2.4-11.2c-1.5-3.1-3.3-5.5-5.6-7.5c-2.3-1.9-4.9-3.3-7.8-4.2C1139.4,1051.7,1136.4,1051.2,1133.2,1051.2z"/>
		<path class="st0" d="M1230.1,992.8v49.1c1.6-1.5,4.6-3,9.1-4.6c4.5-1.6,10.6-2.4,18.4-2.4c5.5,0,10.8,0.7,16.2,2.1
			c5.3,1.4,10.1,3.9,14.3,7.6c4.2,3.7,7.5,8.7,10.1,15.1c2.5,6.4,3.8,14.5,3.8,24.3v16.4c0,10.1-1.3,18.3-3.9,24.6
			c-2.6,6.3-6,11.2-10.3,14.7c-4.3,3.5-9,5.8-14.4,7.1c-5.3,1.3-10.7,1.9-16.2,1.9c-8.4,0-14.9-0.6-19.6-1.9
			c-4.7-1.3-8.9-2.8-12.5-4.5c-0.9,2.7-2.1,4.7-3.5,6.2c-1.4,1.5-2.8,2.5-4.1,3.2l-13.6-4.6c0.7-1.3,1.5-4.1,2.5-8.2
			c1-4.1,1.5-9.9,1.5-17.3v-111.9h-14.6v-16.8H1230.1z M1230.1,1112.9c0,4.7-0.2,8.8-0.6,12.6c1.3,0.7,2.8,1.4,4.3,2.1
			c1.5,0.7,3.2,1.4,5.1,2c1.9,0.6,4,1.1,6.5,1.4c2.5,0.3,5.4,0.5,8.7,0.5c3.7,0,7.2-0.4,10.4-1.3c3.2-0.9,5.9-2.6,8.3-5.1
			c2.3-2.5,4.2-6.1,5.5-10.8c1.3-4.7,2-10.7,2-18.1v-8.4c0-7.3-0.8-13.3-2.3-17.8c-1.5-4.6-3.5-8.2-6-10.8c-2.5-2.6-5.3-4.3-8.6-5.2
			c-3.3-0.9-6.6-1.3-10.1-1.3c-4.7,0-9,0.6-13.1,1.8c-4.1,1.2-7.4,2.7-10.1,4.4V1112.9z"/>
		<path class="st0" d="M1378.1,1021.9v-17.1h102.1v27.5h-17.5v-10.4H1415v43.9h45.9v17.5H1415v45.9h49.5v-10.4h17.5v27.5h-99.3
			v-17.1h9.2v-107.3H1378.1z"/>
		<path class="st0" d="M1610.8,1036.7v17.2c-2,0-4.1,0.2-6.2,0.5c-2.1,0.3-4.5,1.2-7,2.7l-6.6,7.8c-3.9,4.5-7.6,9-11.3,13.5
			c-3.7,4.5-7.4,8.9-11.3,13.3l31.9,37.7h10.4v17.1h-24.5l-31.9-38.1l-31.7,38.1h-24.1v-17.1c2.7,0,5-0.3,6.9-0.8
			c1.9-0.5,4.2-1.7,6.7-3.6l28.1-33.3l-31.7-37.7h-10v-17.2h23.9c5.5,6.4,10.8,12.8,16,19.2c5.2,6.4,10.5,12.9,16,19.2l32.1-38.5
			H1610.8z"/>
		<path class="st0" d="M1660.2,1181.7c-3.6,1.2-7.2,2.4-11,3.5c-3.7,1.1-7.4,2.3-11,3.5v-125.4c0-4-0.5-6.8-1.6-8.4
			c-1.1-1.6-2.7-2.4-5-2.4c-2.8,0-5.5,0.5-8,1.4l-1.8-13.4c2.8-1,5.4-2,7.7-2.8c2.3-0.8,4.8-1.2,7.5-1.2c3.7,0,6.8,0.6,9.3,1.8
			c2.5,1.2,4.6,3.2,6.5,5.9c3.7-2.5,8.3-4.7,13.7-6.5c5.4-1.8,12.4-2.8,21-2.8c5.5,0,10.9,0.7,16.3,2c5.4,1.3,10.2,3.9,14.4,7.6
			c4.2,3.7,7.6,8.8,10.2,15.2c2.6,6.4,3.9,14.8,3.9,25v16.7c0,9.8-1.3,17.8-3.9,23.9c-2.6,6.1-6,10.9-10.2,14.3
			c-4.2,3.5-8.9,5.8-14.2,7.1c-5.3,1.3-10.6,1.9-16.1,1.9c-7.8,0-13.9-0.5-18.1-1.6c-4.3-1.1-7.4-2.3-9.6-3.8V1181.7z M1660.2,1126
			c2.7,1.2,5.6,2.3,9,3.2c3.3,0.9,8.1,1.4,14.4,1.4c3.6,0,7-0.4,10.3-1.2c3.3-0.8,6.1-2.4,8.6-4.8c2.5-2.4,4.4-5.8,5.9-10.3
			c1.5-4.5,2.2-10.4,2.2-17.8v-8.4c0-7.4-0.7-13.5-2.1-18.1c-1.4-4.7-3.3-8.3-5.7-11c-2.4-2.7-5.2-4.5-8.3-5.5
			c-3.1-1-6.5-1.5-10.1-1.5c-5.1,0-9.7,0.8-13.9,2.3c-4.2,1.5-7.6,3.2-10.3,5.1V1126z"/>
		<path class="st0" d="M1803.2,1148.6c-5.9,0-11.8-0.8-17.8-2.3c-6.1-1.5-11.6-4.3-16.6-8.2c-5-3.9-9.1-9.2-12.3-15.8
			c-3.2-6.6-4.8-14.9-4.8-25v-16c0-10.1,1.5-18.2,4.6-24.3c3.1-6.1,7-10.8,11.9-14.2c4.9-3.3,10.2-5.5,16.2-6.5
			c5.9-1,11.7-1.5,17.2-1.5c5.5,0,10.9,0.6,16.3,1.8c5.4,1.2,10.2,3.4,14.5,6.7c4.3,3.3,7.7,7.8,10.3,13.6s3.9,13.3,3.9,22.6
			c0,3.2-0.1,6.4-0.3,9.8c-0.2,3.3-0.6,6.1-1.1,8.4h-72.2c0,6.3,1,11.5,2.9,15.8c1.9,4.3,4.4,7.6,7.3,10.2c2.9,2.5,6.1,4.3,9.5,5.4
			c3.4,1.1,6.5,1.6,9.5,1.6c8.1,0,14.8-0.3,20-1c5.3-0.7,10.1-1.5,14.5-2.4l5.8,14.6c-4.9,2.3-10.8,4-17.6,5.1
			C1817.8,1148,1810.7,1148.6,1803.2,1148.6z M1800.4,1051.2c-3.3,0-6.6,0.3-9.8,0.9c-3.2,0.6-6.1,2-8.6,4.2
			c-2.5,2.2-4.6,5.4-6.2,9.6c-1.6,4.2-2.5,9.8-2.6,16.9h50.7c0.7-0.9,1.1-1.9,1.2-3c0.1-1.1,0.2-2.5,0.2-4.4
			c-0.1-4.4-0.9-8.1-2.4-11.2c-1.5-3.1-3.3-5.5-5.6-7.5c-2.3-1.9-4.9-3.3-7.8-4.2C1806.7,1051.7,1803.6,1051.2,1800.4,1051.2z"/>
		<path class="st0" d="M1932,1061.2l-15.4,1.2l-1-8.2c-2.5,0-5.3,0.2-8.4,0.5c-3.1,0.3-5.9,1-8.6,2c-2.7,1-4.9,2.4-6.7,4.2
			s-2.7,4.2-2.7,7.1v78.4h-22.1v-88.5l-13.2,1l-0.6-15.6c4-1.5,8.3-2.7,12.9-3.6c4.6-0.9,9.3-1.7,14.3-2.4v10.4
			c3.5-3.9,7.5-6.9,12.3-9.3c4.7-2.3,10.8-3.5,18.2-3.5c3.2,0,6.5,0.2,10,0.5c3.5,0.3,7.1,0.9,11,1.7V1061.2z"/>
		<path class="st0" d="M1981.1,1002.6v33.5h23.1v17.7h-23.3v66.6c0,6.9,2.3,10.4,6.8,10.4c2,0,4.1-0.2,6.4-0.6
			c2.3-0.4,5.1-0.9,8.6-1.6l2.2,15.8c-3.1,0.7-6.6,1.4-10.7,2.3c-4.1,0.9-8.1,1.3-12.3,1.3c-8,0-13.8-3.1-17.4-9.4
			c-3.7-6.2-5.5-14.7-5.5-25.3v-59.4h-17.7l1.6-17.7h14c1.2-2.7,2.2-6.4,3-11.2c0.8-4.8,1.2-11.6,1.2-20.3L1981.1,1002.6z"/>
		<path class="st0" d="M2090.2,1066.4V1055c-2.7-1.1-5.6-1.9-8.9-2.6c-3.3-0.7-6.6-1-10.1-1c-7.7,0-13.7,1.1-17.9,3.4
			c-4.3,2.3-6.4,5.3-6.4,9.2c0,4.3,1.6,7.5,4.7,9.7c3.1,2.2,8.3,3.9,15.5,5.1c4,1.1,8.7,2,14.2,2.8c5.5,0.8,10.6,2.2,15.6,4.2
			c4.9,2,9.1,5.1,12.6,9.2c3.5,4.1,5.2,10,5.2,17.7c0,12.1-3.9,21.1-11.7,27c-7.8,5.9-18.8,8.9-33,8.9c-8.6,0-16.7-0.5-24-1.4
			c-7.4-0.9-14.3-2.3-20.8-4l2-28.9h17v11.4c2.5,1.1,5.7,2.1,9.6,3.1c3.9,1,8.3,1.5,13.4,1.5c6,0,10.7-0.7,14.1-2.2
			c3.4-1.5,5.9-3.2,7.6-5.1c1.7-1.9,2.7-3.9,3-5.8c0.3-1.9,0.5-3.4,0.5-4.3c0-2.5-0.7-4.7-2.2-6.4c-1.5-1.7-3.6-3.2-6.3-4.3
			c-2.7-1.1-6-2.1-10-2.9c-3.9-0.8-8.3-1.6-13.3-2.4c-12.2-2.1-21.1-5.6-26.5-10.4c-5.5-4.8-8.2-11.6-8.2-20.5
			c0-6.1,1.1-11.2,3.2-15.3c2.1-4.1,5.2-7.3,9.1-9.9c3.9-2.5,8.7-4.3,14.3-5.4c5.6-1.1,11.9-1.6,18.9-1.6c5.1,0,10.4,0.4,16.2,1.1
			c5.7,0.7,12.5,2,20.3,3.9l-1.8,27.5H2090.2z"/>
</g>
</svg>
